<svg xmlns="http://www.w3.org/2000/svg"  viewBox="0 0 100 100" width="22px" height="22px" baseProfile="basic"><path fill="#3070b7" d="M83.105,15H16.895l5.842,66.211L50,89l27.263-7.789L83.105,15L83.105,15z"/><path fill="#1f212b" d="M50,90c-0.093,0-0.185-0.013-0.274-0.039l-27.263-7.79c-0.398-0.114-0.686-0.461-0.722-0.874	l-5.843-66.21c-0.024-0.279,0.069-0.556,0.259-0.763S16.614,14,16.895,14h66.211c0.28,0,0.548,0.118,0.737,0.325	s0.283,0.484,0.259,0.763l-5.843,66.21c-0.036,0.413-0.323,0.76-0.722,0.874l-27.263,7.79C50.185,89.987,50.093,90,50,90z M23.673,80.438L50,87.96l26.327-7.522L82.014,16H17.986L23.673,80.438z"/><polygon fill="#09ace3" points="50,20.5 50,82.963 71.811,76.732 76.709,20.5"/><polygon fill="#fefdef" points="67.721,30.579 50,30.579 49,34 50,38.368 59.542,38.368 58.958,46.158 50,46.158 49,50 50,53.947 58.568,53.947 57.984,62.711 50,65.437 49,70 50,73.616 65.384,68.553 66.747,46.158 66.747,46.158"/><path fill="#eeecd9" d="M50,30.579v7.789H32.668l-0.584-7.789H50z M41.042,46.158l0.389,7.789H50v-7.789H41.042z M41.821,57.842h-7.789l0.584,10.711L50,73.616v-8.179l-7.984-2.726L41.821,57.842z"/><path fill="#1f212b" d="M50,31.079c-0.276,0-0.5-0.224-0.5-0.5V20.5c0-0.276,0.224-0.5,0.5-0.5h3.5	c0.276,0,0.5,0.224,0.5,0.5S53.776,21,53.5,21h-3v9.579C50.5,30.855,50.276,31.079,50,31.079z"/><path fill="#1f212b" d="M60.5,21h-4c-0.276,0-0.5-0.224-0.5-0.5s0.224-0.5,0.5-0.5h4c0.276,0,0.5,0.224,0.5,0.5	S60.776,21,60.5,21z"/><path fill="#1f212b" d="M50,83.463c-0.107,0-0.213-0.035-0.301-0.101c-0.126-0.095-0.199-0.243-0.199-0.399V76.5	c0-0.276,0.224-0.5,0.5-0.5s0.5,0.224,0.5,0.5v5.8l20.843-5.955L76.163,21H63.5c-0.276,0-0.5-0.224-0.5-0.5s0.224-0.5,0.5-0.5	h13.209c0.141,0,0.273,0.059,0.368,0.162s0.143,0.242,0.13,0.381l-4.898,56.231c-0.018,0.207-0.161,0.38-0.36,0.438l-21.811,6.232	C50.092,83.457,50.046,83.463,50,83.463z"/><path fill="#1f212b" d="M50,65.937c-0.276,0-0.5-0.224-0.5-0.5v-8.49c0-0.276,0.224-0.5,0.5-0.5s0.5,0.224,0.5,0.5v8.49	C50.5,65.713,50.276,65.937,50,65.937z"/><path fill="#1f212b" d="M50,46.658c-0.276,0-0.5-0.224-0.5-0.5v-4.789c0-0.276,0.224-0.5,0.5-0.5s0.5,0.224,0.5,0.5v4.789	C50.5,46.434,50.276,46.658,50,46.658z"/><path fill="#1f212b" d="M50,74.116c-0.053,0-0.105-0.008-0.156-0.025L34.46,69.028c-0.195-0.064-0.332-0.242-0.343-0.448	l-0.585-10.71c-0.008-0.137,0.042-0.271,0.136-0.371c0.095-0.1,0.226-0.156,0.363-0.156h7.79c0.269,0,0.489,0.212,0.5,0.48	l0.181,4.526L50,64.909l7.508-2.564l0.526-7.897H41.432c-0.267,0-0.486-0.209-0.499-0.475l-0.39-7.79	c-0.007-0.137,0.042-0.271,0.137-0.37s0.226-0.155,0.362-0.155h17.452l0.509-6.789H32.668c-0.262,0-0.479-0.202-0.499-0.462	l-0.584-7.79c-0.01-0.139,0.038-0.276,0.133-0.377c0.095-0.102,0.228-0.16,0.366-0.16h35.637c0.138,0,0.27,0.057,0.364,0.158	s0.144,0.236,0.135,0.374l-2.337,37.973c-0.013,0.205-0.148,0.381-0.343,0.445l-15.384,5.063C50.105,74.107,50.053,74.116,50,74.116	z M35.097,68.185L50,73.089l14.905-4.906l2.283-37.104H32.623l0.509,6.79h26.41c0.139,0,0.271,0.058,0.366,0.16	c0.095,0.102,0.143,0.238,0.133,0.377l-0.584,7.789c-0.02,0.261-0.237,0.462-0.499,0.462H41.567l0.34,6.79h16.661	c0.139,0,0.271,0.057,0.365,0.158s0.143,0.237,0.134,0.375l-0.584,8.763c-0.014,0.201-0.146,0.375-0.338,0.44l-7.984,2.727	c-0.104,0.036-0.219,0.036-0.322,0l-7.984-2.727c-0.196-0.067-0.33-0.247-0.339-0.453l-0.175-4.388H34.56L35.097,68.185z"/></svg>