<?xml version="1.0" standalone="no"?>
<!DOCTYPE svg PUBLIC "-//W3C//DTD SVG 20010904//EN"
 "http://www.w3.org/TR/2001/REC-SVG-20010904/DTD/svg10.dtd">
<svg version="1.0" xmlns="http://www.w3.org/2000/svg"
 width="22.000000pt" height="22.000000pt" viewBox="0 0 22.000000 22.000000"
 preserveAspectRatio="xMidYMid meet">

<g transform="translate(0.000000,22.000000) scale(0.100000,-0.100000)"
fill="#000000" stroke="none">
<path d="M166 175 c-4 -11 -1 -22 6 -28 9 -6 5 -7 -12 -4 -21 5 -22 4 -8 -6
15 -10 14 -14 -10 -44 -25 -34 -79 -69 -89 -59 -4 3 7 18 22 33 15 16 34 42
41 60 7 17 19 33 26 36 9 4 8 6 -3 6 -9 1 -23 -16 -33 -39 -9 -21 -31 -51 -48
-65 -41 -34 -27 -51 30 -36 66 18 113 88 94 140 -8 22 -9 22 -16 6z"/>
</g>
</svg>
