<svg xmlns="http://www.w3.org/2000/svg"  viewBox="0 0 100 100" width="22px" height="22px" baseProfile="basic"><path fill="#f59173" d="M83.105,15H16.895l5.842,66.211L50,89l27.263-7.789L83.105,15L83.105,15z"/><path fill="#1f212b" d="M50,90c-0.093,0-0.185-0.013-0.274-0.039l-27.263-7.79c-0.398-0.114-0.686-0.461-0.722-0.874	l-5.843-66.21c-0.024-0.279,0.069-0.556,0.259-0.763S16.614,14,16.895,14h66.211c0.28,0,0.548,0.118,0.737,0.325	s0.283,0.484,0.259,0.763l-5.843,66.21c-0.036,0.413-0.323,0.76-0.722,0.874l-27.263,7.79C50.185,89.987,50.093,90,50,90z M23.673,80.438L50,87.96l26.327-7.522L82.014,16H17.986L23.673,80.438z"/><polygon fill="#e85654" points="50,20.5 50,82.963 71.811,76.732 76.709,20.5"/><polygon fill="#fefdef" points="50,30.579 49,34.474 50,38.368 67.332,38.368 67.916,30.579"/><polygon fill="#fefdef" points="50,53.947 58.568,53.947 57.984,62.711 50,65.437 49,69 50,73.616 65.384,68.553 66.747,46.158 50,46.158 49,50"/><path fill="#eeecd9" d="M50,65.437v8.179l-15.384-5.063l-0.779-10.711h7.789l0.389,4.868L50,65.437z M40.458,38.368H50	v-7.789H32.279l1.363,23.368H50v-7.789h-8.958L40.458,38.368z"/><path fill="#1f212b" d="M67.576,78.441c-0.218,0-0.418-0.143-0.48-0.363c-0.076-0.265,0.077-0.542,0.343-0.618l3.904-1.115	L76.163,21H50.5v3.5c0,0.276-0.224,0.5-0.5,0.5s-0.5-0.224-0.5-0.5v-4c0-0.276,0.224-0.5,0.5-0.5h26.709	c0.141,0,0.273,0.059,0.368,0.162s0.143,0.242,0.13,0.381l-4.898,56.231c-0.018,0.207-0.161,0.38-0.36,0.438l-4.234,1.21	C67.668,78.435,67.621,78.441,67.576,78.441z"/><path fill="#1f212b" d="M62.537,79.881c-0.218,0-0.418-0.143-0.48-0.363c-0.076-0.266,0.078-0.542,0.343-0.618l1.994-0.569	c0.268-0.074,0.542,0.079,0.618,0.344c0.076,0.266-0.078,0.542-0.343,0.618l-1.994,0.569C62.629,79.875,62.582,79.881,62.537,79.881	z"/><path fill="#1f212b" d="M50,83.463c-0.107,0-0.213-0.035-0.301-0.101c-0.126-0.095-0.199-0.243-0.199-0.399v-9.348	c0-0.276,0.224-0.5,0.5-0.5s0.5,0.224,0.5,0.5V82.3l8.81-2.517c0.267-0.074,0.543,0.079,0.618,0.344	c0.076,0.265-0.077,0.542-0.343,0.618l-9.447,2.699C50.092,83.457,50.046,83.463,50,83.463z"/><path fill="#1f212b" d="M50,65.937c-0.276,0-0.5-0.224-0.5-0.5v-8.49c0-0.276,0.224-0.5,0.5-0.5s0.5,0.224,0.5,0.5v8.49	C50.5,65.713,50.276,65.937,50,65.937z"/><path fill="#1f212b" d="M50,46.658c-0.276,0-0.5-0.224-0.5-0.5v-4.789c0-0.276,0.224-0.5,0.5-0.5s0.5,0.224,0.5,0.5v4.789	C50.5,46.434,50.276,46.658,50,46.658z"/><path fill="#1f212b" d="M50,74.116c-0.053,0-0.105-0.008-0.156-0.025L34.46,69.028c-0.192-0.063-0.328-0.237-0.343-0.439	l-0.779-10.71c-0.01-0.138,0.038-0.275,0.133-0.376c0.095-0.102,0.228-0.16,0.366-0.16h7.789c0.261,0,0.478,0.2,0.498,0.46	l0.364,4.541L50,64.909l7.508-2.564l0.526-7.897H33.643c-0.265,0-0.483-0.207-0.499-0.471L31.78,30.608	c-0.008-0.138,0.041-0.272,0.136-0.373c0.094-0.1,0.226-0.157,0.363-0.157h35.637c0.139,0,0.271,0.058,0.366,0.16	c0.095,0.102,0.143,0.238,0.133,0.377l-0.584,7.79c-0.02,0.261-0.237,0.462-0.499,0.462H40.997l0.509,6.789h25.241	c0.138,0,0.27,0.057,0.364,0.157c0.095,0.101,0.144,0.235,0.135,0.373l-1.363,22.395c-0.013,0.205-0.148,0.381-0.343,0.445	l-15.384,5.063C50.105,74.107,50.053,74.116,50,74.116z M35.091,68.183L50,73.089l14.905-4.906l1.311-21.526H41.042	c-0.262,0-0.479-0.202-0.499-0.462l-0.584-7.789c-0.01-0.139,0.038-0.276,0.133-0.377c0.095-0.102,0.228-0.16,0.366-0.16h26.41	l0.509-6.79H32.81l1.305,22.368h24.454c0.139,0,0.271,0.057,0.365,0.158s0.143,0.237,0.134,0.375l-0.584,8.763	c-0.014,0.201-0.146,0.375-0.338,0.44l-7.984,2.727c-0.104,0.036-0.219,0.036-0.322,0l-7.984-2.727	c-0.189-0.064-0.321-0.234-0.337-0.433l-0.354-4.408h-6.789L35.091,68.183z"/><path fill="#1f212b" d="M50,30.9c-0.276,0-0.5-0.224-0.5-0.5v-2.9c0-0.276,0.224-0.5,0.5-0.5s0.5,0.224,0.5,0.5v2.9	C50.5,30.676,50.276,30.9,50,30.9z"/></svg>