<svg xmlns="http://www.w3.org/2000/svg"  viewBox="0 0 100 100" width="24px" height="24px"><path d="M 22.060547 19.480469 C 18.150547 19.480469 13.970625 19.650234 9.640625 19.990234 C 8.570625 20.070234 7.7607813 20.990547 7.8007812 22.060547 C 7.8407813 23.130547 8.7207813 23.980469 9.8007812 23.980469 C 23.710781 24.000469 36.469141 25.689922 44.619141 28.419922 C 42.129141 28.209922 39.610547 28.089844 37.060547 28.089844 C 18.060547 28.089844 3.8009375 33.910391 3.2109375 34.150391 C 2.2409375 34.560391 1.7503125 35.630859 2.0703125 36.630859 C 2.3503125 37.460859 3.1307031 38 3.9707031 38 C 4.1307031 38 4.2909375 37.979453 4.4609375 37.939453 C 4.6109375 37.899453 20.480938 34 36.460938 34 C 38.520938 34 40.500859 34.069453 42.380859 34.189453 C 24.690859 37.009453 11.460313 46.990469 10.820312 47.480469 C 9.9803125 48.130469 9.7908594 49.309453 10.380859 50.189453 C 10.770859 50.759453 11.399063 51.070312 12.039062 51.070312 C 12.389062 51.070312 12.740547 50.979062 13.060547 50.789062 C 13.250547 50.679063 31.949531 39.689453 50.769531 39.689453 C 51.289531 39.689453 51.800547 39.690937 52.310547 39.710938 L 52.369141 39.710938 C 49.879141 41.790937 46.609375 45.790547 46.859375 52.310547 C 47.179375 60.540547 53.159453 65.49 58.939453 66.75 C 61.319453 67.27 63.350547 67.39 65.310547 67.5 C 68.920547 67.72 72.050156 67.899375 76.910156 70.609375 C 82.340156 73.629375 86.450625 81.589141 87.390625 90.869141 C 87.490625 91.879141 88.339375 92.659922 89.359375 92.669922 L 89.380859 92.669922 C 90.390859 92.669922 91.239141 91.919922 91.369141 90.919922 C 91.429141 90.429922 92.430937 81.599687 86.960938 72.929688 C 89.010937 74.779687 90.759844 77.349141 91.339844 80.869141 C 91.499844 81.829141 92.340547 82.539063 93.310547 82.539062 L 93.339844 82.539062 C 94.329844 82.519063 95.160781 81.790547 95.300781 80.810547 C 95.330781 80.560547 96.069531 74.619219 91.019531 69.199219 C 85.779531 63.569219 76.979609 60.720703 64.849609 60.720703 C 61.169609 60.720703 58.320156 59.710938 56.410156 57.710938 C 54.310156 55.520938 53.660234 52.440703 53.740234 50.470703 C 53.870234 47.320703 56.390312 43.640625 63.070312 43.640625 C 66.720313 43.640625 73.270156 46.709141 76.410156 48.369141 C 76.610156 49.469141 77.069141 50.729141 78.119141 51.369141 C 78.399141 51.549141 78.709609 51.679844 79.099609 51.839844 C 80.239609 52.329844 82.150156 53.140156 84.410156 55.660156 C 84.800156 56.090156 85.350391 56.320313 85.900391 56.320312 C 86.280391 56.320312 86.66 56.210234 87 55.990234 L 90.009766 54.009766 C 90.689766 53.559766 91.030859 52.750938 90.880859 51.960938 C 90.720859 51.170938 90.110313 50.540859 89.320312 50.380859 C 88.280312 50.160859 86.969766 49.650234 86.259766 49.240234 C 86.229766 48.780234 86.089062 48.309375 85.789062 47.859375 C 85.649062 47.649375 85.480781 47.450703 85.300781 47.220703 C 84.910781 46.760703 84.389453 46.129922 83.939453 45.169922 C 83.779453 44.839922 83.380781 44.220078 82.550781 43.830078 C 82.780781 43.630078 82.979609 43.389609 83.099609 43.099609 C 83.409609 42.349609 83.240156 41.489922 82.660156 40.919922 C 74.000156 32.299922 66.640078 30.499687 66.330078 30.429688 C 66.180078 30.389688 66.029141 30.369141 65.869141 30.369141 C 65.049141 30.369141 64.3 30.879688 64 31.679688 C 63.65 32.619687 64.059219 33.680391 64.949219 34.150391 C 64.999219 34.170391 67.709297 35.589375 70.779297 37.609375 L 70.720703 37.609375 C 70.260703 37.639375 69.839531 37.840859 69.519531 38.130859 C 68.549531 37.750859 67.309219 37.339375 65.949219 37.109375 C 64.739219 36.899375 63.459844 36.869609 62.339844 36.849609 C 61.359844 36.829609 59.870234 36.790312 59.490234 36.570312 C 59.360234 36.460313 59.189766 36.329453 59.009766 36.189453 C 58.039766 35.469453 56.569297 34.380938 56.029297 27.710938 C 55.989297 27.170938 55.719063 26.660313 55.289062 26.320312 C 54.949062 26.040312 46.530547 19.480469 22.060547 19.480469 z M 22.060547 21.480469 C 46.110547 21.480469 54.039063 27.880859 54.039062 27.880859 C 54.719062 36.340859 56.98 37.080859 58.25 38.130859 C 59.51 39.190859 62.869375 38.610078 65.609375 39.080078 C 68.349375 39.550078 70.550781 40.820312 70.550781 40.820312 L 70.869141 39.609375 C 71.749141 41.679375 73.869141 42.390625 73.869141 42.390625 L 73.869141 40.759766 C 74.659141 42.659766 76.869141 43.970703 76.869141 43.970703 L 76.869141 42.410156 C 76.869141 42.410156 77.609844 43.539844 78.339844 44.339844 C 79.079844 45.149844 79.859375 45.599609 79.859375 45.599609 C 79.859375 45.599609 80.350859 45.480469 80.880859 45.480469 C 81.380859 45.480469 81.920859 45.589531 82.130859 46.019531 C 82.890859 47.649531 83.810859 48.500703 84.130859 48.970703 C 84.440859 49.440703 84.130859 50 84.130859 50 C 84.650859 50.98 87.390156 52.019844 88.910156 52.339844 L 85.900391 54.320312 C 82.680391 50.740313 79.939922 50.149922 79.169922 49.669922 C 78.389922 49.189922 78.269531 47.109375 78.269531 47.109375 C 78.269531 47.109375 68.530313 41.640625 63.070312 41.640625 C 55.020313 41.640625 51.900234 46.460625 51.740234 50.390625 C 51.580234 54.310625 53.729609 62.720703 64.849609 62.720703 C 77.659609 62.720703 85.320547 66.020547 89.560547 70.560547 C 94.020547 75.350547 93.320313 80.539063 93.320312 80.539062 C 91.370312 68.809062 78.119141 66.429687 78.119141 66.429688 C 91.209141 75.999687 89.380859 90.669922 89.380859 90.669922 C 88.490859 81.849922 84.570859 72.589375 77.880859 68.859375 C 69.920859 64.419375 65.939375 66.230781 59.359375 64.800781 C 54.589375 63.760781 49.149375 59.720234 48.859375 52.240234 C 48.509375 43.230234 55.910156 39.720703 55.910156 39.720703 L 52.519531 30.029297 C 45.979531 25.119297 28.700781 22.000469 9.8007812 21.980469 C 14.290781 21.640469 18.370547 21.480469 22.060547 21.480469 z M 37.060547 30.089844 C 41.400547 30.089844 45.969922 30.399922 50.669922 31.169922 C 50.669922 31.179922 50.679453 31.179453 50.689453 31.189453 L 51.210938 33.359375 C 46.560937 32.379375 41.500937 32 36.460938 32 C 20.030938 32 3.9707031 36 3.9707031 36 C 3.9707031 36 18.240547 30.089844 37.060547 30.089844 z M 65.900391 32.380859 C 66.380391 32.500859 73.19 34.319844 81.25 42.339844 L 79.560547 42.339844 C 75.620547 37.509844 66.470391 32.680859 65.900391 32.380859 z M 51.460938 35.449219 L 51.539062 35.449219 L 52.380859 37.710938 C 51.840859 37.690938 51.309531 37.689453 50.769531 37.689453 C 31.459531 37.689453 12.640781 48.720547 12.050781 49.060547 C 12.600781 48.650547 30.140938 35.449219 51.460938 35.449219 z M 81.912109 47.929688 C 81.912109 47.929688 81.822109 48.49825 81.912109 48.65625 C 82.084109 48.96025 83.111328 49.376953 83.111328 49.376953 L 81.912109 47.929688 z"/></svg>