<svg xmlns="http://www.w3.org/2000/svg"  viewBox="0 0 100 100" width="20px" height="20px" fill="#4b4dff"><path fill="#4b4dff" d="M85.984,28.195c-2.577,1.145-5.565,1.721-8.468,2.079l-0.027-0.049 c2.996-1.794,5.459-4.382,6.541-7.772c-2.802,1.662-5.909,2.868-9.215,3.522c-2.647-2.82-6.417-4.583-10.589-4.583 c-8.013,0-14.51,6.497-14.51,14.51c0,1.136,0.128,2.245,0.376,3.306c-12.057-0.61-23.489-6.022-30.648-14.799 c-1.246,2.144-1.217,4.272-1.217,6.933c0,5.034,2.559,9.471,6.453,12.074c-2.378-0.08-4.718-0.029-6.672-1.116 c0,0.062,0,0.119,0,0.181c0,7.032,5.641,12.548,12.279,13.883c-1.215,0.331-5.603,1.03-6.487,0.862 c1.847,5.763,7.149,9.072,13.5,9.191c-4.963,3.894-11.274,7.324-18.072,7.324c-1.171,0-2.325-0.066-3.461-0.203 c6.417,4.119,13.548,5.323,21.742,5.323c26.686,0,41.275-22.107,41.275-41.279c0-0.628-0.013-1.255-0.04-1.878 C81.578,33.658,84.04,31.103,85.984,28.195z"/><path fill="#4343bf" d="M64.498,26.411c2.518,0,4.854,1.011,6.578,2.847l0.371,0.348c1.601,1.502,2.108,6.984,2.108,7.548 c0,15.252-11.406,36.737-36.768,36.691c-0.032-0.077-0.012-0.028-0.044-0.105C38.14,72.519,44,64,44,64s-8.665-3.16-9.085-3.229 L41,55c0,0-14-6-13.662-5.684L35,46c0,0-9.098-8.574-9.539-9.029c7.145,4.66,15.46,7.418,24.116,7.856l7.956,0.403l-1.81-7.758 c-0.154-0.658-0.231-1.35-0.231-2.056C55.492,30.451,59.532,26.411,64.498,26.411 M64.498,20.411 c-8.287,0-15.006,6.719-15.006,15.006c0,1.175,0.133,2.322,0.388,3.419c-12.469-0.631-23.521-6.604-30.926-15.682 c-1.289,2.217-2.03,4.794-2.03,7.546c0,5.206,2.646,9.795,6.673,12.487c-2.459-0.083-4.772-0.754-6.792-1.879 c0,0.064,0,0.124,0,0.188c0,7.272,5.17,13.333,12.035,14.713c-1.257,0.343-2.583,0.526-3.954,0.526 c-0.965,0-1.906-0.096-2.82-0.27c1.911,5.96,7.45,10.298,14.019,10.421c-5.133,4.027-11.605,6.422-18.635,6.422 c-1.211,0-2.404-0.069-3.579-0.21c6.637,4.26,14.521,6.747,22.996,6.747c27.598,0,42.687-22.863,42.687-42.691 c0-0.649-0.014-1.298-0.041-1.942c2.93-2.116,5.476-4.758,7.487-7.766c-2.665,1.184-5.416,1.97-8.419,2.34l-0.027-0.05 c3.099-1.856,5.307-4.722,6.427-8.228c-2.898,1.718-6.111,2.966-9.53,3.643C72.712,22.234,68.813,20.411,64.498,20.411 L64.498,20.411z M87,27.445h0.005H87z"/><path fill="#3abcf8" d="M35.25,83.994l-0.5-9.988c14.88-0.743,25.827-6.446,32.536-16.948 c4.949-7.745,5.726-15.409,5.732-15.484l9.963,0.854C82.948,42.82,79.102,81.801,35.25,83.994z"/><circle cx="64.5" cy="34.5" r="2.5" fill="#edf7f5"/></svg>